# xmcd CD database file
#
# Track frame offsets:
#	150
#	33523
#	83776
#	135826
#	187428
#	231838
#
# Disc length: 3611 seconds
#
# Revision: 3
# Processed by: cddbd v1.5.2PL0 Copyright (c) Steve Scherf et al.
# Submitted via: CDex 1.77
#
DISCID=4a0e1906
DTITLE=Hennie Bekker - Sleep Therapy
DYEAR=2003
DGENRE=New Age
TTITLE0=Journey to Dreamland
TTITLE1=Drifting into Delta
TTITLE2=Floating Free
TTITLE3=Tranquil Realms
TTITLE4=Waves of Renewal
TTITLE5=Rebirth
EXTD=YEAR: 2003
EXTT0=
EXTT1=
EXTT2=
EXTT3=
EXTT4=
EXTT5=
PLAYORDER=
